<mxfile host="app.diagrams.net" modified="2024-04-30T09:56:22.001Z" agent="Mozilla/5.0 (Windows NT 10.0; Win64; x64) AppleWebKit/537.36 (KHTML, like Gecko) Chrome/124.0.0.0 Safari/537.36" etag="3_JRIO6wjPxVgNx8TOr5" version="24.2.8" type="device">
  <diagram id="GNU3i8hCxYjH3E0Nk9u4" name="Page-1">
    <mxGraphModel dx="893" dy="545" grid="1" gridSize="10" guides="1" tooltips="1" connect="1" arrows="1" fold="1" page="1" pageScale="1" pageWidth="850" pageHeight="1100" math="0" shadow="0">
      <root>
        <mxCell id="0" />
        <mxCell id="1" parent="0" />
        <mxCell id="SxChvwyNo0VWfiRIfejJ-16" style="rounded=0;orthogonalLoop=1;jettySize=auto;html=1;exitX=1;exitY=0.75;exitDx=0;exitDy=0;entryX=0;entryY=0.5;entryDx=0;entryDy=0;endArrow=none;endFill=0;" parent="1" source="SxChvwyNo0VWfiRIfejJ-6" target="SxChvwyNo0VWfiRIfejJ-14" edge="1">
          <mxGeometry relative="1" as="geometry" />
        </mxCell>
        <mxCell id="SxChvwyNo0VWfiRIfejJ-6" value="AppServer 1&lt;div&gt;Python - FastAPI&lt;/div&gt;&lt;div&gt;Gestion des commandes&lt;/div&gt;&lt;div&gt;Port: 85&lt;/div&gt;&lt;div&gt;&lt;br&gt;&lt;/div&gt;" style="image;aspect=fixed;perimeter=ellipsePerimeter;html=1;align=center;shadow=0;dashed=0;fontColor=#4277BB;labelBackgroundColor=default;fontSize=12;spacingTop=3;image=img/lib/ibm/applications/app_server.svg;" parent="1" vertex="1">
          <mxGeometry x="280" y="110" width="60" height="60" as="geometry" />
        </mxCell>
        <mxCell id="SxChvwyNo0VWfiRIfejJ-17" style="edgeStyle=orthogonalEdgeStyle;rounded=0;orthogonalLoop=1;jettySize=auto;html=1;endArrow=none;endFill=0;" parent="1" source="SxChvwyNo0VWfiRIfejJ-7" target="SxChvwyNo0VWfiRIfejJ-14" edge="1">
          <mxGeometry relative="1" as="geometry" />
        </mxCell>
        <mxCell id="SxChvwyNo0VWfiRIfejJ-7" value="AppServer 2&lt;div&gt;Python - Flask&lt;/div&gt;&lt;div&gt;Gestion des biÃ¨res&lt;/div&gt;&lt;div&gt;Port: 2711&lt;/div&gt;" style="image;aspect=fixed;perimeter=ellipsePerimeter;html=1;align=center;shadow=0;dashed=0;fontColor=#4277BB;labelBackgroundColor=default;fontSize=12;spacingTop=3;image=img/lib/ibm/applications/app_server.svg;" parent="1" vertex="1">
          <mxGeometry x="280" y="290" width="60" height="60" as="geometry" />
        </mxCell>
        <mxCell id="SxChvwyNo0VWfiRIfejJ-8" value="AppServer 3&lt;div&gt;PHP - Laravel&lt;/div&gt;&lt;div&gt;Gestion des plats&lt;br&gt;Port: 8000&lt;/div&gt;" style="image;aspect=fixed;perimeter=ellipsePerimeter;html=1;align=center;shadow=0;dashed=0;fontColor=#4277BB;labelBackgroundColor=default;fontSize=12;spacingTop=3;image=img/lib/ibm/applications/app_server.svg;" parent="1" vertex="1">
          <mxGeometry x="280" y="470" width="60" height="60" as="geometry" />
        </mxCell>
        <mxCell id="SxChvwyNo0VWfiRIfejJ-10" value="" style="shape=image;html=1;verticalAlign=top;verticalLabelPosition=bottom;labelBackgroundColor=#ffffff;imageAspect=0;aspect=fixed;image=https://cdn2.iconfinder.com/data/icons/boxicons-logos/24/bxl-python-128.png" parent="1" vertex="1">
          <mxGeometry x="310" y="100" width="40" height="40" as="geometry" />
        </mxCell>
        <mxCell id="SxChvwyNo0VWfiRIfejJ-11" value="" style="shape=image;html=1;verticalAlign=top;verticalLabelPosition=bottom;labelBackgroundColor=#ffffff;imageAspect=0;aspect=fixed;image=https://cdn2.iconfinder.com/data/icons/boxicons-logos/24/bxl-python-128.png" parent="1" vertex="1">
          <mxGeometry x="310" y="280" width="40" height="40" as="geometry" />
        </mxCell>
        <mxCell id="SxChvwyNo0VWfiRIfejJ-13" value="" style="shape=image;html=1;verticalAlign=top;verticalLabelPosition=bottom;labelBackgroundColor=#ffffff;imageAspect=0;aspect=fixed;image=https://cdn4.iconfinder.com/data/icons/scripting-and-programming-languages/512/php-128.png" parent="1" vertex="1">
          <mxGeometry x="312" y="460" width="38" height="38" as="geometry" />
        </mxCell>
        <mxCell id="SxChvwyNo0VWfiRIfejJ-18" style="rounded=0;orthogonalLoop=1;jettySize=auto;html=1;exitX=0;exitY=0.5;exitDx=0;exitDy=0;endArrow=none;endFill=0;entryX=1;entryY=0;entryDx=0;entryDy=0;" parent="1" source="SxChvwyNo0VWfiRIfejJ-14" target="SxChvwyNo0VWfiRIfejJ-8" edge="1">
          <mxGeometry relative="1" as="geometry">
            <mxPoint x="380" y="500" as="targetPoint" />
          </mxGeometry>
        </mxCell>
        <mxCell id="SxChvwyNo0VWfiRIfejJ-14" value="AppServer 0&lt;div&gt;Python - Tornado&lt;/div&gt;&lt;div&gt;API Gateway&lt;br&gt;Port: 81&lt;/div&gt;" style="image;aspect=fixed;perimeter=ellipsePerimeter;html=1;align=center;shadow=0;dashed=0;fontColor=#4277BB;labelBackgroundColor=default;fontSize=12;spacingTop=3;image=img/lib/ibm/applications/app_server.svg;" parent="1" vertex="1">
          <mxGeometry x="510" y="280" width="80" height="80" as="geometry" />
        </mxCell>
        <mxCell id="SxChvwyNo0VWfiRIfejJ-15" value="" style="shape=image;html=1;verticalAlign=top;verticalLabelPosition=bottom;labelBackgroundColor=#ffffff;imageAspect=0;aspect=fixed;image=https://cdn2.iconfinder.com/data/icons/boxicons-logos/24/bxl-python-128.png" parent="1" vertex="1">
          <mxGeometry x="560" y="260" width="50" height="50" as="geometry" />
        </mxCell>
        <mxCell id="SxChvwyNo0VWfiRIfejJ-20" style="edgeStyle=orthogonalEdgeStyle;rounded=0;orthogonalLoop=1;jettySize=auto;html=1;entryX=1;entryY=0.5;entryDx=0;entryDy=0;" parent="1" source="SxChvwyNo0VWfiRIfejJ-19" target="SxChvwyNo0VWfiRIfejJ-14" edge="1">
          <mxGeometry relative="1" as="geometry">
            <mxPoint x="590" y="322" as="targetPoint" />
          </mxGeometry>
        </mxCell>
        <mxCell id="SxChvwyNo0VWfiRIfejJ-19" value="Web Client&lt;div&gt;Bootstrap&lt;/div&gt;" style="sketch=0;outlineConnect=0;fontColor=#232F3E;gradientColor=none;fillColor=#232F3D;strokeColor=none;dashed=0;verticalLabelPosition=bottom;verticalAlign=top;align=center;html=1;fontSize=12;fontStyle=0;aspect=fixed;pointerEvents=1;shape=mxgraph.aws4.client;" parent="1" vertex="1">
          <mxGeometry x="730" y="282" width="78" height="76" as="geometry" />
        </mxCell>
        <mxCell id="SxChvwyNo0VWfiRIfejJ-22" value="" style="shape=image;verticalLabelPosition=bottom;labelBackgroundColor=default;verticalAlign=top;aspect=fixed;imageAspect=0;image=https://getbootstrap.com/docs/5.0/assets/brand/bootstrap-logo.svg;" parent="1" vertex="1">
          <mxGeometry x="770" y="270" width="50.2" height="40" as="geometry" />
        </mxCell>
        <mxCell id="FXCXVvDxTQtwc45PbP1s-115" value="Icons" style="" parent="0" />
      </root>
    </mxGraphModel>
  </diagram>
</mxfile>
